<?xml version="1.0" encoding="UTF-8" standalone="no"?>
<!-- Generator: Adobe Illustrator 17.1.0, SVG Export Plug-In . SVG Version: 6.00 Build 0)  -->

<svg
   xmlns:dc="http://purl.org/dc/elements/1.1/"
   xmlns:cc="http://creativecommons.org/ns#"
   xmlns:rdf="http://www.w3.org/1999/02/22-rdf-syntax-ns#"
   xmlns:svg="http://www.w3.org/2000/svg"
   xmlns="http://www.w3.org/2000/svg"
   xmlns:sodipodi="http://sodipodi.sourceforge.net/DTD/sodipodi-0.dtd"
   xmlns:inkscape="http://www.inkscape.org/namespaces/inkscape"
   version="1.1"
   id="Layer_1"
   x="0px"
   y="0px"
   viewBox="0 0 425.2 226.8"
   enable-background="new 0 0 425.2 226.8"
   xml:space="preserve"
   inkscape:version="0.48.4 r9939"
   width="100%"
   height="100%"
   sodipodi:docname="risc-v_final_small_dash.svg"><metadata
     id="metadata85"><rdf:RDF><cc:Work
         rdf:about=""><dc:format>image/svg+xml</dc:format><dc:type
           rdf:resource="http://purl.org/dc/dcmitype/StillImage" /><dc:title></dc:title></cc:Work></rdf:RDF></metadata><defs
     id="defs83" /><sodipodi:namedview
     pagecolor="#ffffff"
     bordercolor="#666666"
     borderopacity="1"
     objecttolerance="10"
     gridtolerance="10"
     guidetolerance="10"
     inkscape:pageopacity="0"
     inkscape:pageshadow="2"
     inkscape:window-width="1855"
     inkscape:window-height="1176"
     id="namedview81"
     showgrid="false"
     inkscape:zoom="12.19191"
     inkscape:cx="250.61515"
     inkscape:cy="124.73174"
     inkscape:window-x="65"
     inkscape:window-y="24"
     inkscape:window-maximized="1"
     inkscape:current-layer="Layer_1" /><rect
     style="fill:#ececec;fill-opacity:1;stroke:none"
     id="rect3836"
     width="22.799999"
     height="16.4"
     x="199.5"
     y="110.89999" /><g
     id="g19"><path
       fill="#FFFFFF"
       d="M121.5,144.4c0,3.3-2,6.3-5.9,7l5.5,6.5l0.5-0.7l9.9-14v-5.9h-16.1l0,0   C119.5,137.8,121.5,141.1,121.5,144.4z"
       id="path21" /><path
       fill="#FFFFFF"
       d="M124.3,159.1l7.3-10.2v11h-7.9L124.3,159.1z M110.2,148.4h3.8c2.8,0,4.2-2,4.2-4c0-2-1.4-3.9-4.2-3.9h-5   H109h-0.2v19.5h9.7l-8.3-10L110.2,148.4L110.2,148.4z"
       id="path23" /><rect
       x="164.9"
       y="141.2"
       fill="#FFFFFF"
       width="3.3"
       height="15.4"
       id="rect25" /><path
       fill="#FFFFFF"
       d="M175.4,150.6c-1.3,0-2.4-0.5-3.3-1.4c-0.9-0.9-1.4-2-1.4-3.3c0-1.3,0.5-2.4,1.4-3.3c0.9-0.9,2-1.4,3.3-1.4   h17.3v3.3h-17.3c-0.4,0-0.7,0.2-1,0.4s-0.4,0.6-0.4,1c0,0.4,0.2,0.7,0.4,1s0.6,0.4,1,0.4H188c1.3,0,2.4,0.5,3.3,1.4   c0.9,0.9,1.4,2,1.4,3.3c0,1.3-0.5,2.4-1.4,3.3s-2,1.4-3.3,1.4h-17.3v-3.3H188c0.4,0,0.7-0.2,1-0.4s0.4-0.6,0.4-1   c0-0.4-0.2-0.7-0.4-1s-0.6-0.4-1-0.4H175.4z"
       id="path27" /><path
       fill="#FFFFFF"
       d="M202,141.2h14.3v3.3H202c-1.2,0-2.2,0.4-3.1,1.3c-0.9,0.9-1.3,1.9-1.3,3.1c0,1.2,0.4,2.2,1.3,3.1   c0.9,0.9,1.9,1.3,3.1,1.3h14.3v3.3H202c-2.1,0-3.9-0.7-5.4-2.2c-1.5-1.5-2.2-3.3-2.2-5.4s0.7-3.9,2.2-5.4   C198.1,142,199.9,141.2,202,141.2z"
       id="path29" /><path
       fill="#FFFFFF"
       d="M162.5,156.6l-4.4-6.1c1.2-0.1,2.2-0.5,3-1.4c0.9-0.9,1.4-2,1.4-3.3c0-1.3-0.5-2.4-1.4-3.3   c-0.9-0.9-2-1.4-3.3-1.4h-17.3v15.4h3.3v-6.1H154l4.4,6.1L162.5,156.6L162.5,156.6z M143.8,144.5h14c0.4,0,0.7,0.2,1,0.4   s0.4,0.6,0.4,1c0,0.4-0.2,0.7-0.4,1s-0.6,0.4-1,0.4h-14C143.8,147.4,143.8,144.5,143.8,144.5z"
       id="path31" /></g><g
     id="g33"
     transform="translate(-15.703917,88.381594)"><text
       xml:space="preserve"
       style="font-size:40px;font-style:normal;font-variant:normal;font-weight:normal;font-stretch:normal;line-height:125%;letter-spacing:0px;word-spacing:0px;fill:#000000;fill-opacity:1;stroke:none;font-family:Nimbus Sans L;-inkscape-font-specification:Nimbus Sans L"
       x="238.02391"
       y="37.958405"
       id="text3062"
       sodipodi:linespacing="125%"><tspan
         sodipodi:role="line"
         id="tspan3064"
         x="238.02391"
         y="37.958405"
         style="font-size:20px;fill:#2a3172;fill-opacity:1">scale</tspan></text>
</g><line
     fill="none"
     stroke="#FFFFFF"
     stroke-miterlimit="10"
     x1="96.9"
     y1="130.7"
     x2="253.3"
     y2="130.7"
     id="line49" /><path
     d="m 208.99999,126.8 -9,-15.4 h 3.8 l 7.1,12.2 7.1,-12.2 h 3.8 l -9,15.4"
     id="path69"
     inkscape:connector-curvature="0"
     style="fill:#f6b21a" /><path
     fill="#FFFFFF"
     d="M232.8,156.7l-9-15.4h3.8l7.1,12.2l7.1-12.2h3.8l-9,15.4"
     id="path73" /><rect
     x="218.3"
     y="147.5"
     fill="#FFFFFF"
     width="6.5"
     height="3"
     id="rect75" /><path
     sodipodi:type="arc"
     style="fill:#f6b21a;fill-opacity:1;stroke:none"
     id="path3834"
     sodipodi:cx="161.69852"
     sodipodi:cy="30.766647"
     sodipodi:rx="5.567811"
     sodipodi:ry="5.567811"
     d="m 167.26633,30.766647 a 5.567811,5.567811 0 1 1 -11.13562,0 5.567811,5.567811 0 1 1 11.13562,0 z"
     transform="matrix(0.24999999,0,0,0.24999999,160.96732,117.71638)" /></svg>